<svg xmlns="http://www.w3.org/2000/svg"  width="36" height="36" viewBox="0 0 44 34"><path d="M15.5 3.05v6.7H9.125a48.493 48.493 0 0 1 1.967-5.889 15.101 15.101 0 0 1 4.408-.81zm1 0c1.492.05 2.925.319 4.275.768a48.266 48.266 0 0 1 1.98 5.932H16.5zm5.531 1.25a14.922 14.922 0 0 1 6.485 5.45h-4.729a47.976 47.976 0 0 0-1.756-5.45zm-12.205.065A47.627 47.627 0 0 0 8.1 9.75H3.484a14.922 14.922 0 0 1 6.342-5.385zM2.943 10.75h4.909a35.983 35.983 0 0 0-.891 6.75H1.05c.082-2.455.77-4.732 1.892-6.75zm5.928 0H15.5v6.75H7.947c.08-2.248.394-4.49.924-6.75zm7.629 0h6.51c.529 2.26.838 4.503.918 6.75H16.5zm7.537 0h5.02c1.124 2.02 1.838 4.296 1.925 6.75h-.632a8.448 8.448 0 0 0-5.426-.1 35.88 35.88 0 0 0-.887-6.65zm3.463 7.252a7.484 7.484 0 0 1 6.596 3.922 7.516 7.516 0 0 1 .568 1.346 7.481 7.481 0 0 1 .297 1.462 7.692 7.692 0 0 1 0 1.538 7.464 7.464 0 0 1-1.672 4.004A7.483 7.483 0 0 1 27.5 33a7.484 7.484 0 0 1-6.596-3.924 7.462 7.462 0 0 1-.865-2.807v-.001a7.612 7.612 0 0 1-.039-.766V25.5a7.692 7.692 0 0 1 .152-1.512v-.002c.05-.243.111-.482.184-.717v-.002c.073-.234.157-.463.252-.687v-.002a7.48 7.48 0 0 1 .316-.654v-.002c.115-.212.241-.418.375-.617v-.002c.135-.2.28-.39.432-.575v-.002a7.473 7.473 0 0 1 5.79-2.725zM1.05 18.5h5.897c-.01 2.234.202 4.478.666 6.752h-4.67A14.844 14.844 0 0 1 1.051 18.5zm6.882 0H15.5v6.752H8.63a31.724 31.724 0 0 1-.698-6.752zm8.568 0h6.188a8.56 8.56 0 0 0-1.745 1.596v.002c-.173.21-.337.426-.49.652v.002c-.305.452-.57.934-.785 1.441v.002a8.44 8.44 0 0 0-.285.78v.002a8.393 8.393 0 0 0-.21.81v.002c-.056.276-.1.557-.128.842v.002c-.02.203-.025.412-.031.62H16.5zM27.012 21v1h-1.5a.52.52 0 0 0-.5.5v6c0 .262.238.5.5.5h1.5v1h1v-1h1.343c1.024 0 1.782-.94 1.782-2 0-.814-.448-1.554-1.12-1.855.182-.333.284-.723.284-1.145 0-.511-.142-.982-.406-1.352-.265-.37-.682-.648-1.166-.648h-.717v-1zm-1 2h1v2h-1zm2 0h.717c.109 0 .228.058.351.23.124.173.22.45.22.77s-.096.599-.22.771c-.123.173-.242.229-.351.229h-.717zm-2 3h1v2h-1zm2 0H29.356c.395 0 .78.398.78 1s-.385 1-.78 1H28.012zm-24.528.252H7.84a37.609 37.609 0 0 0 1.654 5.234 14.92 14.92 0 0 1-6.01-5.234zm5.373 0H15.5v6.7a15.082 15.082 0 0 1-4.713-.925 37.638 37.638 0 0 1-1.93-5.775zm7.643 0h2.537c.029.325.073.646.137.959v.002a8.393 8.393 0 0 0 .494 1.592v.002a8.464 8.464 0 0 0 .785 1.441v.002c.27.4.581.771.914 1.12-.099.244-.198.49-.303.736a15.257 15.257 0 0 1-4.564.845z" color="#000" font-family="sans-serif" font-weight="400" overflow="visible" style="text-indent:0;text-align:start;line-height:normal;"/></svg>